<svg xmlns:xlink="http://www.w3.org/1999/xlink" xmlns="http://www.w3.org/2000/svg" width="72" height="56" viewBox="0 0 72 56" fill="none"><path d="M28.9632 47.998C18.0146 43.6369 -2.73917 41.3234 0.300688 27.3663C3.34055 13.4091 19.2022 22.8119 32.0496 20.5991C44.8969 18.3864 55.3296 4.25405 65.9342 8.94938C79.093 14.7763 68.1072 24.8435 58.7599 31.6086C49.4125 38.3738 57.4328 48 57.4328 48L28.9632 47.998Z" fill="#F5F5F5"></path><path d="M14.5 3C14.5 2.72386 14.7239 2.5 15 2.5H57C57.2761 2.5 57.5 2.72386 57.5 3V53C57.5 53.2761 57.2761 53.5 57 53.5H15C14.7239 53.5 14.5 53.2761 14.5 53V3Z" fill="#FFFFFF" stroke="#222325"></path><rect x="48" y="14" width="1" height="20" fill="#222325"></rect><path d="M50 15H66.4195C67.2924 15 68 15.6922 68 16.5461V29.456C67.9988 30.3091 67.2916 31 66.4195 31H50V15Z" fill="#62D49F"></path><rect x="48.6323" y="23.7294" width="2.67001" height="1" fill="#222325"></rect><rect x="48.6323" y="26.9659" width="9.07803" height="1" fill="#222325"></rect><rect x="48.6323" y="29.1221" width="4.80602" height="1" fill="#222325"></rect><rect x="52.9065" y="23.7294" width="3.73801" height="1" fill="#222325"></rect><rect x="57.7112" y="23.7294" width="3.73801" height="1" fill="#222325"></rect><path d="M20 10H30.9091" stroke="#222325" fill="none"></path><path d="M20 15H28.7273" stroke="#222325" fill="none"></path><path d="M20 20H41.8182" stroke="#222325" fill="none"></path><path d="M20 25H45.0909" stroke="#222325" fill="none"></path><path d="M20 30H45.0909" stroke="#222325" fill="none"></path><path d="M20 35H45.0909" stroke="#222325" fill="none"></path><path d="M20 40H37.4546" stroke="#222325" fill="none"></path><path d="M20 45H29.8182" stroke="#222325" fill="none"></path><path d="M48.5 16.5H64C64.8285 16.5 65.5 17.1716 65.5 18V30C65.5 30.8284 64.8285 31.5 64 31.5H48.5V16.5Z" stroke="#222325" fill="none"></path></svg>