<svg xmlns:xlink="http://www.w3.org/1999/xlink" xmlns="http://www.w3.org/2000/svg" width="72" height="56" viewBox="0 0 72 56" fill="none"><path d="M55.7034 43.9029C69.3807 39.8223 77.6462 23.1256 67.454 11.9318C57.2618 0.737925 49.6325 16.5972 38.0078 20.5714C26.3831 24.5456 18.2482 14.4284 6.8546 22.1421C-4.53896 29.8557 -0.834163 47.4141 11.3855 47.959C22.834 48.4774 55.7034 43.9029 55.7034 43.9029Z" fill="#F5F5F5"></path><path opacity="0.1" d="M20.3227 1.74626L18.5846 0.0167694L20.3227 1.74626Z" fill="#222325"></path><path opacity="0.1" d="M53.4248 1.74626L51.6844 0.0167694L53.4248 1.74626Z" fill="#222325"></path><path d="M38.2878 51.8182C51.5426 51.8182 62.2878 41.073 62.2878 27.8182C62.2878 14.5633 51.5426 3.81818 38.2878 3.81818C25.033 3.81818 14.2878 14.5633 14.2878 27.8182C14.2878 41.073 25.033 51.8182 38.2878 51.8182Z" fill="#62D49F"></path><path d="M42 19H33.5C31.0147 19 29 21.0147 29 23.5V23.5C29 25.9853 31.0147 28 33.5 28H37.25C39.8734 28 42 30.1266 42 32.75V32.75C42 35.3734 39.8734 37.5 37.25 37.5H29" stroke="#222325" fill="none"></path><mask id="path-6-inside-1" fill="#FFFFFF"><path d="M36 16H35V40H36V16Z" fill="#FFFFFF"></path></mask><path d="M35 16V15H34V16H35ZM36 16H37V15H36V16ZM36 40V41H37V40H36ZM35 40H34V41H35V40ZM35 17H36V15H35V17ZM35 16V40H37V16H35ZM36 39H35V41H36V39ZM36 40V16H34V40H36Z" fill="#222325" mask="url(#path-6-inside-1)"></path><circle cx="36" cy="28" r="23.5" stroke="#222325" fill="none"></circle></svg>