<svg xmlns:xlink="http://www.w3.org/1999/xlink" xmlns="http://www.w3.org/2000/svg" width="72" height="56" viewBox="0 0 72 56" fill="none"><path d="M55.7034 40.7223C69.3807 37.4578 77.6461 24.1005 67.4539 15.1454C57.2618 6.19034 49.6325 18.8777 38.0078 22.0571C26.3831 25.2365 18.2481 17.1427 6.85459 23.3136C-4.53897 29.4846 -0.834178 43.5313 11.3855 43.9672C22.8339 44.3819 55.7034 40.7223 55.7034 40.7223Z" fill="#F5F5F5"></path><path d="M59 1.0137L55.3344 4.39183L51.6688 1.0137L48.0032 4.39183L44.3376 1.0137L40.672 4.39183L37.0064 1.0137L33.3408 4.39183L29.6752 1.0137L26.0096 4.39183L22.3461 1.0137L18.6805 4.39183L15 1V46H59V1.0137Z" fill="#62D49F"></path><path d="M58 2.01553L54.3344 5.84408L50.6688 2.01553L47.0032 5.84408L43.3376 2.01553L39.672 5.84408L36.0064 2.01553L32.3408 5.84408L28.6752 2.01553L25.0096 5.84408L21.3461 2.01553L17.6805 5.84408L14 2V53H58V2.01553Z" fill="#FFFFFF" stroke="#222325" stroke-miterlimit="10"></path><path d="M38 34H19V35H38V34Z" fill="#222325"></path><path d="M37 40H19V41H37V40Z" fill="#222325"></path><path d="M39 46H19V47H39V46Z" fill="#222325"></path><path d="M36.8244 28.4844C42.0711 28.4844 46.3244 24.2311 46.3244 18.9844C46.3244 13.7377 42.0711 9.48438 36.8244 9.48438C31.5777 9.48438 27.3244 13.7377 27.3244 18.9844C27.3244 24.2311 31.5777 28.4844 36.8244 28.4844Z" fill="#62D49F"></path><path d="M36.3989 24.75H32.555V23.8503H36.3989C36.8752 23.8226 37.3233 23.6052 37.6511 23.2426C37.979 22.8801 38.1616 22.3999 38.1616 21.9008C38.1616 21.4017 37.979 20.9216 37.6511 20.559C37.3233 20.1965 36.8752 19.979 36.3989 19.9514H34.851C34.4829 19.969 34.1152 19.9085 33.7701 19.7732C33.425 19.638 33.1096 19.431 32.8431 19.1647C32.5767 18.8984 32.3646 18.5783 32.2196 18.2238C32.0747 17.8693 32 17.4877 32 17.1022C32 16.7166 32.0747 16.3351 32.2196 15.9806C32.3646 15.6261 32.5767 15.306 32.8431 15.0397C33.1096 14.7734 33.425 14.5663 33.7701 14.4311C34.1152 14.2959 34.4829 14.2353 34.851 14.253H38.695V15.1527H34.851C34.5977 15.138 34.3441 15.1775 34.1058 15.2689C33.8675 15.3602 33.6495 15.5014 33.4652 15.6839C33.2808 15.8663 33.134 16.0862 33.0336 16.3301C32.9333 16.574 32.8815 16.8367 32.8815 17.1022C32.8815 17.3677 32.9333 17.6304 33.0336 17.8743C33.134 18.1181 33.2808 18.338 33.4652 18.5205C33.6495 18.703 33.8675 18.8442 34.1058 18.9355C34.3441 19.0268 34.5977 19.0663 34.851 19.0516H36.3989C37.0996 19.0853 37.7608 19.4001 38.2453 19.9308C38.7297 20.4614 39 21.167 39 21.9008C39 22.6346 38.7297 23.3402 38.2453 23.8708C37.7608 24.4015 37.0996 24.7164 36.3989 24.75V24.75Z" fill="#222325"></path><path d="M35.5 12.5H34.625V26.5H35.5V12.5Z" fill="#222325"></path><circle cx="35.5" cy="19.5" r="10" stroke="#222325" fill="none"></circle><circle cx="55.7806" cy="39.78" r="16" fill="#62D49F"></circle><circle cx="55" cy="40" r="15.5" stroke="#222325" fill="none"></circle><path d="M64.5696 40.0008V40.5008H65.0696H67.3524L63.5763 45.0677L59.4968 40.5008H62.0592H62.5592V40.0008C62.5592 38.6172 62.1753 37.2606 61.45 36.0811C60.7248 34.9016 59.6865 33.9452 58.4502 33.3174C57.2139 32.6897 55.8276 32.4149 54.4446 32.5234C53.0616 32.6318 51.7354 33.1194 50.6128 33.9323C49.4901 34.7451 48.6147 35.8518 48.0834 37.1299C47.5522 38.4081 47.386 39.8079 47.6031 41.1744C47.8203 42.541 48.4124 43.8209 49.3138 44.8727C49.8643 45.515 50.5171 46.057 51.2424 46.479C51.8133 46.8111 52.0882 47.4257 51.9227 47.9333C51.7442 48.4808 51.1932 48.709 50.7716 48.499C49.6334 47.9321 48.6163 47.1417 47.7839 46.1705C46.6421 44.838 45.8923 43.2171 45.6174 41.4868C45.3424 39.7565 45.5528 37.9842 46.2256 36.3656C46.8983 34.747 48.0071 33.345 49.4297 32.315C50.8524 31.2849 52.5332 30.6668 54.2866 30.5293C56.04 30.3918 57.7972 30.7402 59.3642 31.5358C60.931 32.3315 62.2464 33.5434 63.165 35.0373C64.0836 36.5312 64.5696 38.249 64.5696 40.0008Z" fill="#FFFFFF" stroke="#222325"></path></svg>